<svg width="48" height="48" viewBox="0 0 48 48" fill="none" xmlns="http://www.w3.org/2000/svg">
  <g filter="url(#filter0_d_123_456)">
    <circle cx="24" cy="22" r="20" fill="white"/>
    <circle cx="24" cy="22" r="19" stroke="#FF5252" stroke-width="2"/>
  </g>
  <path d="M14 26H17V32H14V26Z" fill="#333333"/>
  <path d="M31 26H34V32H31V26Z" fill="#333333"/>
  <path d="M14.2 18L18 12H30L33.8 18H14.2Z" fill="#FF5252"/>
  <rect x="14" y="18" width="20" height="9" fill="#FF5252"/>
  <path d="M22.5 14H25.5V23H22.5V14Z" fill="white"/>
  <path d="M19 17.5H29V20.5H19V17.5Z" fill="white"/>
  <circle cx="18" cy="29" r="3" fill="#333333"/>
  <circle cx="30" cy="29" r="3" fill="#333333"/>
  <circle cx="18" cy="29" r="1.5" fill="#555555"/>
  <circle cx="30" cy="29" r="1.5" fill="#555555"/>
  <defs>
    <filter id="filter0_d_123_456" x="0" y="0" width="48" height="48" filterUnits="userSpaceOnUse" color-interpolation-filters="sRGB">
      <feFlood flood-opacity="0" result="BackgroundImageFix"/>
      <feColorMatrix in="SourceAlpha" type="matrix" values="0 0 0 0 0 0 0 0 0 0 0 0 0 0 0 0 0 0 127 0" result="hardAlpha"/>
      <feOffset dy="2"/>
      <feGaussianBlur stdDeviation="2"/>
      <feComposite in2="hardAlpha" operator="out"/>
      <feColorMatrix type="matrix" values="0 0 0 0 0 0 0 0 0 0 0 0 0 0 0 0 0 0 0.15 0"/>
      <feBlend mode="normal" in2="BackgroundImageFix" result="effect1_dropShadow_123_456"/>
      <feBlend mode="normal" in="SourceGraphic" in2="effect1_dropShadow_123_456" result="shape"/>
    </filter>
  </defs>
</svg>
