<svg width="24" height="24" viewBox="0 0 24 24" fill="none" xmlns="http://www.w3.org/2000/svg">
<path d="M3.63989 22.5H3.59958C3.28124 22.4989 2.97636 22.3714 2.75196 22.1456C2.52755 21.9198 2.40199 21.6141 2.40286 21.2958V21.2372C2.41082 21.1347 2.4292 21.0332 2.45771 20.9344L3.35536 17.6869C3.33211 17.6197 3.30228 17.555 3.2663 17.4938C3.24424 17.4571 3.2203 17.4216 3.19458 17.3873L3.1688 17.3508C2.07812 15.6983 1.49777 13.7615 1.50005 11.7816C1.49161 9.08297 2.54771 6.53156 4.47427 4.59797C6.46599 2.60016 9.13552 1.5 11.9916 1.5C14.4141 1.4991 16.7646 2.32307 18.6563 3.83625C20.506 5.325 21.7913 7.39875 22.2746 9.68109C22.4234 10.3736 22.499 11.0798 22.5 11.7881C22.5 14.5509 21.4388 17.1455 19.5118 19.095C17.5669 21.0614 14.9565 22.1447 12.1599 22.1447C11.1708 22.1447 9.91411 21.8934 9.31083 21.7228C8.56833 21.5147 7.84833 21.2381 7.81833 21.2264C7.73772 21.1953 7.65206 21.1794 7.56567 21.1795C7.47198 21.1789 7.37914 21.1974 7.29286 21.2339L7.25489 21.2489L4.09271 22.3917C3.96082 22.4462 3.82171 22.4813 3.67974 22.4958L3.63989 22.5ZM4.41193 16.508C4.46489 16.5802 4.51505 16.6561 4.56099 16.733L4.56708 16.7438C4.83802 17.2177 4.92427 17.6442 4.82396 18.0094L4.04911 20.8125L6.72849 19.8455C7.24939 19.6324 7.83195 19.626 8.35739 19.8277C8.38599 19.8389 9.04083 20.0911 9.71677 20.2795C10.3482 20.4563 11.4197 20.6442 12.1618 20.6442C17.0368 20.6442 21.0019 16.6716 21.0019 11.7881C21.0013 11.185 20.9374 10.5836 20.8111 9.99375C19.9496 5.94047 16.2418 3 11.9916 3C9.53724 3 7.24458 3.94359 5.53693 5.65688C3.89349 7.30547 2.99255 9.47953 3.00005 11.7792C2.99817 13.4596 3.48904 15.1037 4.41193 16.508Z" fill="white"/>
<path d="M7.50003 13.5C8.32845 13.5 9.00003 12.8284 9.00003 12C9.00003 11.1716 8.32845 10.5 7.50003 10.5C6.6716 10.5 6.00003 11.1716 6.00003 12C6.00003 12.8284 6.6716 13.5 7.50003 13.5Z" fill="white"/>
<path d="M12 13.5C12.8285 13.5 13.5 12.8284 13.5 12C13.5 11.1716 12.8285 10.5 12 10.5C11.1716 10.5 10.5 11.1716 10.5 12C10.5 12.8284 11.1716 13.5 12 13.5Z" fill="white"/>
<path d="M16.5 13.5C17.3285 13.5 18 12.8284 18 12C18 11.1716 17.3285 10.5 16.5 10.5C15.6716 10.5 15 11.1716 15 12C15 12.8284 15.6716 13.5 16.5 13.5Z" fill="white"/>
</svg>
